<svg width="13" height="13" viewBox="0 0 13 13" fill="none" xmlns="http://www.w3.org/2000/svg">
  <path d="M11.1234 0.182274C11.3187 -0.012919 11.6352 -0.0130567 11.8304 0.182274L11.9584 0.31118C12.1535 0.506469 12.1536 0.823011 11.9584 1.01821L6.90271 6.0729L11.9584 11.1286C12.1536 11.3238 12.1535 11.6403 11.9584 11.8356L11.8304 11.9645C11.6353 12.1597 11.3187 12.1596 11.1234 11.9645L6.06677 6.90786L1.01111 11.9645C0.815774 12.1596 0.49923 12.1598 0.304079 11.9645L0.176149 11.8356C-0.0189517 11.6403 -0.0190538 11.3238 0.176149 11.1286L5.23084 6.0729L0.176149 1.01821C-0.0190313 0.823039 -0.0188845 0.506476 0.176149 0.31118L0.304079 0.182274C0.499251 -0.0130565 0.815775 -0.0128464 1.01111 0.182274L6.06677 5.23794L11.1234 0.182274Z" fill="white"/>
</svg>